<svg xmlns="http://www.w3.org/2000/svg"><defs><clipPath id="clip-1"><path d="M-2.42439,-5.77546v10.27942h4.84878v-10.27942z" stroke-width="4"/></clipPath><clipPath id="clip-2"><path d="M0.60782,3.3747c-0.50625,1.13127 -0.60782,1.4253 -0.60782,1.4253c0,0 -0.10157,-0.29403 -0.60782,-1.4253c-0.45845,-1.02446 -0.59805,-1.26936 -0.59805,-1.26936c0,0 -0.1396,-0.2449 -0.59805,-1.26936c-0.50625,-1.13127 -0.60782,-1.4253 -0.60782,-1.4253c0,0 0.55029,0.58115 1.09755,0.57361c0.56541,-0.00779 0.81255,-0.14544 1.12779,-0.60427c0.27408,-0.39891 0.1721,-0.82297 0.05085,-1.11122c-0.18459,-0.43883 -1.07032,-1.31237 -1.07032,-1.31237c0,0 -0.88573,-0.87354 -1.07032,-1.31237c-0.12125,-0.28825 -0.22322,-0.71231 0.05085,-1.11122c0.31525,-0.45883 0.56238,-0.59648 1.12779,-0.60427c0.54726,-0.00754 1.09755,0.57361 1.09755,0.57361c0,0 0.55029,-0.58115 1.09755,-0.57361c0.56541,0.00779 0.81255,0.14544 1.12779,0.60427c0.27408,0.39891 0.1721,0.82297 0.05085,1.11122c-0.18459,0.43883 -1.07032,1.31237 -1.07032,1.31237c0,0 -0.88573,0.87354 -1.07032,1.31237c-0.12125,0.28825 -0.22322,0.71231 0.05085,1.11122c0.31525,0.45883 0.56238,0.59648 1.12779,0.60427c0.54726,0.00754 1.09755,-0.57361 1.09755,-0.57361c0,0 -0.10157,0.29403 -0.60782,1.4253c-0.45845,1.02446 -0.59805,1.26936 -0.59805,1.26936c0,0 -0.1396,0.2449 -0.59805,1.26936z" fill="none" stroke-width="0.144" stroke-linejoin="round"/></clipPath><clipPath id="clip-3"><path d="M-0.93156,2.55484v-1.97071h0.93156v1.97071z" fill="none" stroke-width="1"/></clipPath><clipPath id="clip-4"><path d="M0,2.55484v-1.97071h0.93156v1.97071z" fill="none" stroke-width="1"/></clipPath><symbol viewBox="-2.41176,-6.07149,4.82352,10.87149" id="symbol-1"><g fill="none" fill-rule="nonzero" stroke="none" stroke-width="none" stroke-linecap="butt" stroke-linejoin="none" stroke-miterlimit="10" stroke-dasharray="" stroke-dashoffset="0" font-family="none" font-weight="none" font-size="none" text-anchor="none" style="mix-blend-mode: normal"><path d="M0.60782,3.3747c-0.50625,1.13127 -0.60782,1.4253 -0.60782,1.4253c0,0 -0.10157,-0.29403 -0.60782,-1.4253c-0.45845,-1.02446 -0.59805,-1.26936 -0.59805,-1.26936c0,0 -0.1396,-0.2449 -0.59805,-1.26936c-0.50625,-1.13127 -0.60782,-1.4253 -0.60782,-1.4253c0,0 0.55029,0.58115 1.09755,0.57361c0.56541,-0.00779 0.81255,-0.14544 1.12779,-0.60427c0.27408,-0.39891 0.1721,-0.82297 0.05085,-1.11122c-0.18459,-0.43883 -1.07032,-1.31237 -1.07032,-1.31237c0,0 -0.88573,-0.87354 -1.07032,-1.31237c-0.12125,-0.28825 -0.22322,-0.71231 0.05085,-1.11122c0.31525,-0.45883 0.56238,-0.59648 1.12779,-0.60427c0.54726,-0.00754 1.09755,0.57361 1.09755,0.57361c0,0 0.55029,-0.58115 1.09755,-0.57361c0.56541,0.00779 0.81255,0.14544 1.12779,0.60427c0.27408,0.39891 0.1721,0.82297 0.05085,1.11122c-0.18459,0.43883 -1.07032,1.31237 -1.07032,1.31237c0,0 -0.88573,0.87354 -1.07032,1.31237c-0.12125,0.28825 -0.22322,0.71231 0.05085,1.11122c0.31525,0.45883 0.56238,0.59648 1.12779,0.60427c0.54726,0.00754 1.09755,-0.57361 1.09755,-0.57361c0,0 -0.10157,0.29403 -0.60782,1.4253c-0.45845,1.02446 -0.59805,1.26936 -0.59805,1.26936c0,0 -0.1396,0.2449 -0.59805,1.26936z" fill="#6c217f" stroke-width="0.144" stroke-linejoin="round"/><g clip-path="url(#clip-2)"><g stroke-linejoin="miter"><g clip-path="url(#clip-3)"><path d="M0.0507,2.55484c0,0 -0.5178,-0.52506 -0.8312,-1.13345c-0.14943,-0.29008 -0.20145,-0.51125 -0.09445,-0.66349c0.09702,-0.13804 0.26404,-0.27805 0.60451,-0.0622c0.41973,0.2661 0.34574,0.66463 0.34574,0.66463" data-paper-data="{&quot;id&quot;:3,&quot;rotation&quot;:0,&quot;style&quot;:{&quot;useTileColors&quot;:true,&quot;sameForAllTiles&quot;:false,&quot;fillSpec&quot;:{&quot;has&quot;:true,&quot;shade&quot;:-20,&quot;algorithm&quot;:&quot;rotate&quot;,&quot;colors&quot;:[[&quot;Color&quot;,0.42353,0.12941,0.49804],[&quot;Color&quot;,0.22353,0.07451,0.25882]]},&quot;borderSpec&quot;:{&quot;has&quot;:false,&quot;shade&quot;:-20,&quot;algorithm&quot;:&quot;tileBorder&quot;,&quot;colors&quot;:[[&quot;Color&quot;,1,1,1],[&quot;Color&quot;,1,1,1]]},&quot;borderWidth&quot;:&quot;1&quot;}}" fill="#391342" stroke-width="0.036"/></g><g clip-path="url(#clip-4)"><path d="M-0.0507,2.55484c0,0 0.5178,-0.52506 0.8312,-1.13345c0.14943,-0.29008 0.20145,-0.51125 0.09445,-0.66349c-0.09702,-0.13804 -0.26404,-0.27805 -0.60451,-0.0622c-0.41973,0.2661 -0.34574,0.66463 -0.34574,0.66463" data-paper-data="{&quot;id&quot;:4,&quot;rotation&quot;:0,&quot;style&quot;:{&quot;useTileColors&quot;:true,&quot;sameForAllTiles&quot;:false,&quot;fillSpec&quot;:{&quot;has&quot;:true,&quot;shade&quot;:-20,&quot;algorithm&quot;:&quot;rotate&quot;,&quot;colors&quot;:[[&quot;Color&quot;,0.42353,0.12941,0.49804],[&quot;Color&quot;,0.22353,0.07451,0.25882]]},&quot;borderSpec&quot;:{&quot;has&quot;:false,&quot;shade&quot;:-20,&quot;algorithm&quot;:&quot;tileBorder&quot;,&quot;colors&quot;:[[&quot;Color&quot;,1,1,1],[&quot;Color&quot;,1,1,1]]},&quot;borderWidth&quot;:&quot;1&quot;}}" fill="#391342" stroke-width="0.036"/></g></g></g></g></symbol><clipPath id="clip-5"><path d="M0.60782,3.3747c-0.50625,1.13127 -0.60782,1.4253 -0.60782,1.4253c0,0 -0.10157,-0.29403 -0.60782,-1.4253c-0.45845,-1.02446 -0.59805,-1.26936 -0.59805,-1.26936c0,0 -0.1396,-0.2449 -0.59805,-1.26936c-0.50625,-1.13127 -0.60782,-1.4253 -0.60782,-1.4253c0,0 0.55029,0.58115 1.09755,0.57361c0.56541,-0.00779 0.81255,-0.14544 1.12779,-0.60427c0.27408,-0.39891 0.1721,-0.82297 0.05085,-1.11122c-0.18459,-0.43883 -1.07032,-1.31237 -1.07032,-1.31237c0,0 -0.88573,-0.87354 -1.07032,-1.31237c-0.12125,-0.28825 -0.22322,-0.71231 0.05085,-1.11122c0.31525,-0.45883 0.56238,-0.59648 1.12779,-0.60427c0.54726,-0.00754 1.09755,0.57361 1.09755,0.57361c0,0 0.55029,-0.58115 1.09755,-0.57361c0.56541,0.00779 0.81255,0.14544 1.12779,0.60427c0.27408,0.39891 0.1721,0.82297 0.05085,1.11122c-0.18459,0.43883 -1.07032,1.31237 -1.07032,1.31237c0,0 -0.88573,0.87354 -1.07032,1.31237c-0.12125,0.28825 -0.22322,0.71231 0.05085,1.11122c0.31525,0.45883 0.56238,0.59648 1.12779,0.60427c0.54726,0.00754 1.09755,-0.57361 1.09755,-0.57361c0,0 -0.10157,0.29403 -0.60782,1.4253c-0.45845,1.02446 -0.59805,1.26936 -0.59805,1.26936c0,0 -0.1396,0.2449 -0.59805,1.26936z" fill="none" stroke-width="0.144" stroke-linejoin="round"/></clipPath><clipPath id="clip-6"><path d="M-0.93156,2.55484v-1.97071h0.93156v1.97071z" fill="none" stroke-width="1"/></clipPath><clipPath id="clip-7"><path d="M0,2.55484v-1.97071h0.93156v1.97071z" fill="none" stroke-width="1"/></clipPath><symbol viewBox="-2.41176,-6.07149,4.82352,10.87149" id="symbol-2"><g fill="none" fill-rule="nonzero" stroke="none" stroke-width="none" stroke-linecap="butt" stroke-linejoin="none" stroke-miterlimit="10" stroke-dasharray="" stroke-dashoffset="0" font-family="none" font-weight="none" font-size="none" text-anchor="none" style="mix-blend-mode: normal"><path d="M0.60782,3.3747c-0.50625,1.13127 -0.60782,1.4253 -0.60782,1.4253c0,0 -0.10157,-0.29403 -0.60782,-1.4253c-0.45845,-1.02446 -0.59805,-1.26936 -0.59805,-1.26936c0,0 -0.1396,-0.2449 -0.59805,-1.26936c-0.50625,-1.13127 -0.60782,-1.4253 -0.60782,-1.4253c0,0 0.55029,0.58115 1.09755,0.57361c0.56541,-0.00779 0.81255,-0.14544 1.12779,-0.60427c0.27408,-0.39891 0.1721,-0.82297 0.05085,-1.11122c-0.18459,-0.43883 -1.07032,-1.31237 -1.07032,-1.31237c0,0 -0.88573,-0.87354 -1.07032,-1.31237c-0.12125,-0.28825 -0.22322,-0.71231 0.05085,-1.11122c0.31525,-0.45883 0.56238,-0.59648 1.12779,-0.60427c0.54726,-0.00754 1.09755,0.57361 1.09755,0.57361c0,0 0.55029,-0.58115 1.09755,-0.57361c0.56541,0.00779 0.81255,0.14544 1.12779,0.60427c0.27408,0.39891 0.1721,0.82297 0.05085,1.11122c-0.18459,0.43883 -1.07032,1.31237 -1.07032,1.31237c0,0 -0.88573,0.87354 -1.07032,1.31237c-0.12125,0.28825 -0.22322,0.71231 0.05085,1.11122c0.31525,0.45883 0.56238,0.59648 1.12779,0.60427c0.54726,0.00754 1.09755,-0.57361 1.09755,-0.57361c0,0 -0.10157,0.29403 -0.60782,1.4253c-0.45845,1.02446 -0.59805,1.26936 -0.59805,1.26936c0,0 -0.1396,0.2449 -0.59805,1.26936z" fill="#391342" stroke-width="0.144" stroke-linejoin="round"/><g clip-path="url(#clip-5)"><g stroke-linejoin="miter"><g clip-path="url(#clip-6)"><path d="M0.0507,2.55484c0,0 -0.5178,-0.52506 -0.8312,-1.13345c-0.14943,-0.29008 -0.20145,-0.51125 -0.09445,-0.66349c0.09702,-0.13804 0.26404,-0.27805 0.60451,-0.0622c0.41973,0.2661 0.34574,0.66463 0.34574,0.66463" data-paper-data="{&quot;id&quot;:3,&quot;rotation&quot;:0,&quot;style&quot;:{&quot;useTileColors&quot;:true,&quot;sameForAllTiles&quot;:false,&quot;fillSpec&quot;:{&quot;has&quot;:true,&quot;shade&quot;:-20,&quot;algorithm&quot;:&quot;rotate&quot;,&quot;colors&quot;:[[&quot;Color&quot;,0.42353,0.12941,0.49804],[&quot;Color&quot;,0.22353,0.07451,0.25882]]},&quot;borderSpec&quot;:{&quot;has&quot;:false,&quot;shade&quot;:-20,&quot;algorithm&quot;:&quot;tileBorder&quot;,&quot;colors&quot;:[[&quot;Color&quot;,1,1,1],[&quot;Color&quot;,1,1,1]]},&quot;borderWidth&quot;:&quot;1&quot;}}" fill="#6c217f" stroke-width="0.036"/></g><g clip-path="url(#clip-7)"><path d="M-0.0507,2.55484c0,0 0.5178,-0.52506 0.8312,-1.13345c0.14943,-0.29008 0.20145,-0.51125 0.09445,-0.66349c-0.09702,-0.13804 -0.26404,-0.27805 -0.60451,-0.0622c-0.41973,0.2661 -0.34574,0.66463 -0.34574,0.66463" data-paper-data="{&quot;id&quot;:4,&quot;rotation&quot;:0,&quot;style&quot;:{&quot;useTileColors&quot;:true,&quot;sameForAllTiles&quot;:false,&quot;fillSpec&quot;:{&quot;has&quot;:true,&quot;shade&quot;:-20,&quot;algorithm&quot;:&quot;rotate&quot;,&quot;colors&quot;:[[&quot;Color&quot;,0.42353,0.12941,0.49804],[&quot;Color&quot;,0.22353,0.07451,0.25882]]},&quot;borderSpec&quot;:{&quot;has&quot;:false,&quot;shade&quot;:-20,&quot;algorithm&quot;:&quot;tileBorder&quot;,&quot;colors&quot;:[[&quot;Color&quot;,1,1,1],[&quot;Color&quot;,1,1,1]]},&quot;borderWidth&quot;:&quot;1&quot;}}" fill="#6c217f" stroke-width="0.036"/></g></g></g></g></symbol></defs><g transform="translate(75,139.33279) scale(30.93559,-30.93559)" fill="none" fill-rule="nonzero" stroke="none" stroke-width="none" stroke-linecap="butt" stroke-linejoin="miter" stroke-miterlimit="10" stroke-dasharray="" stroke-dashoffset="0" font-family="none" font-weight="none" font-size="none" text-anchor="none" style="mix-blend-mode: normal"><g clip-path="url(#clip-1)"><g transform="translate(-4.82352,10.29781)" stroke-width="1"><use x="-4.82352" y="0.01563" transform="rotate(180)" a0:href="#symbol-1" xmlns:a0="http://www.w3.org/1999/xlink" width="4.82352" height="10.87149" overflow="visible"/></g><g transform="translate(-4.82352,0)" stroke-width="1"><use x="-2.41176" y="-6.07149" transform="" a1:href="#symbol-2" xmlns:a1="http://www.w3.org/1999/xlink" width="4.82352" height="10.87149" overflow="visible"/><use x="-4.82352" y="0.01563" transform="rotate(180)" a2:href="#symbol-1" xmlns:a2="http://www.w3.org/1999/xlink" width="4.82352" height="10.87149" overflow="visible"/></g><g transform="translate(0,10.29781)" stroke-width="1"><use x="-2.41176" y="-6.07149" transform="" a3:href="#symbol-2" xmlns:a3="http://www.w3.org/1999/xlink" width="4.82352" height="10.87149" overflow="visible"/><use x="-4.82352" y="0.01563" transform="rotate(180)" a4:href="#symbol-1" xmlns:a4="http://www.w3.org/1999/xlink" width="4.82352" height="10.87149" overflow="visible"/></g><g stroke-width="1"><use x="-2.41176" y="-6.07149" transform="" a5:href="#symbol-2" xmlns:a5="http://www.w3.org/1999/xlink" width="4.82352" height="10.87149" overflow="visible"/><use x="-4.82352" y="0.01563" transform="rotate(180)" a6:href="#symbol-1" xmlns:a6="http://www.w3.org/1999/xlink" width="4.82352" height="10.87149" overflow="visible"/></g><g transform="translate(0,-10.29781)" stroke-width="1"><use x="-2.41176" y="-6.07149" transform="" a7:href="#symbol-2" xmlns:a7="http://www.w3.org/1999/xlink" width="4.82352" height="10.87149" overflow="visible"/></g><g transform="translate(4.82352,0)" stroke-width="1"><use x="-2.41176" y="-6.07149" transform="" a8:href="#symbol-2" xmlns:a8="http://www.w3.org/1999/xlink" width="4.82352" height="10.87149" overflow="visible"/></g></g></g></svg>